# xmcd
#
# Track frame offsets: 
#        150
#        11400
#        28275
#        45075
#        62008
#        77700
#        93600
#        110135
#        125775
#
# Disc length: 1909 seconds
#
# Revision: 4
# Processed by: cddbd v1.5.2PL0 Copyright (c) Steve Scherf et al.
# Submitted via: ExactAudioCopyFreeDBPlugin 1.0
#
DISCID=73077309
DTITLE=The Judds - Heartland
DYEAR=1987
DGENRE=Country
TTITLE0=The Judds - The Jordanaires - Don't Be Cruel
TTITLE1=I'm Falling In Love Tonight
TTITLE2=Turn It Loose
TTITLE3=Old Pictures
TTITLE4=Cow Cow Boogie
TTITLE5=Maybe Your Baby's Got The Blues
TTITLE6=I Know Where I'm Going
TTITLE7=Why Don't You Believe Me?
TTITLE8=The Judds - Emmylou Harris - The Sweetest Gift
EXTD=YEAR: 1987
EXTT0=
EXTT1=
EXTT2=
EXTT3=
EXTT4=
EXTT5=
EXTT6=
EXTT7=
EXTT8=
PLAYORDER=
